<mxfile host="app.diagrams.net" modified="2022-08-30T07:47:10.314Z" agent="5.0 (Windows NT 10.0; Win64; x64) AppleWebKit/537.36 (KHTML, like Gecko) Chrome/104.0.0.0 Safari/537.36" etag="YFKJ10lyk_ooVJRTdn9v" version="20.2.7" type="github">
  <diagram id="eBtTih_BoKIzsS74jI0T" name="第 1 页">
    <mxGraphModel dx="1363" dy="722" grid="1" gridSize="10" guides="1" tooltips="1" connect="1" arrows="1" fold="1" page="1" pageScale="1" pageWidth="1200" pageHeight="1600" math="0" shadow="0">
      <root>
        <mxCell id="0" />
        <mxCell id="1" parent="0" />
        <mxCell id="-s1ChVZKqWMHeGCS3bXz-3" style="edgeStyle=orthogonalEdgeStyle;rounded=0;orthogonalLoop=1;jettySize=auto;html=1;entryX=0;entryY=0.5;entryDx=0;entryDy=0;" edge="1" parent="1" source="-s1ChVZKqWMHeGCS3bXz-2" target="-s1ChVZKqWMHeGCS3bXz-4">
          <mxGeometry relative="1" as="geometry">
            <mxPoint x="320" y="194.9999999999999" as="targetPoint" />
          </mxGeometry>
        </mxCell>
        <mxCell id="-s1ChVZKqWMHeGCS3bXz-2" value="" style="shadow=0;dashed=0;html=1;strokeColor=none;fillColor=#4495D1;labelPosition=center;verticalLabelPosition=bottom;verticalAlign=top;align=center;outlineConnect=0;shape=mxgraph.veeam.company_administrator;" vertex="1" parent="1">
          <mxGeometry x="230" y="170" width="50" height="50" as="geometry" />
        </mxCell>
        <mxCell id="-s1ChVZKqWMHeGCS3bXz-5" style="edgeStyle=orthogonalEdgeStyle;rounded=0;orthogonalLoop=1;jettySize=auto;html=1;entryX=0;entryY=0.5;entryDx=0;entryDy=0;" edge="1" parent="1" source="-s1ChVZKqWMHeGCS3bXz-4" target="-s1ChVZKqWMHeGCS3bXz-6">
          <mxGeometry relative="1" as="geometry">
            <mxPoint x="470" y="194.9999999999999" as="targetPoint" />
          </mxGeometry>
        </mxCell>
        <mxCell id="-s1ChVZKqWMHeGCS3bXz-4" value="创建自定义数据源" style="rounded=0;whiteSpace=wrap;html=1;" vertex="1" parent="1">
          <mxGeometry x="330" y="180" width="100" height="30" as="geometry" />
        </mxCell>
        <mxCell id="-s1ChVZKqWMHeGCS3bXz-11" style="edgeStyle=orthogonalEdgeStyle;rounded=0;orthogonalLoop=1;jettySize=auto;html=1;entryX=0;entryY=0.5;entryDx=0;entryDy=0;" edge="1" parent="1" source="-s1ChVZKqWMHeGCS3bXz-6" target="-s1ChVZKqWMHeGCS3bXz-7">
          <mxGeometry relative="1" as="geometry" />
        </mxCell>
        <mxCell id="-s1ChVZKqWMHeGCS3bXz-13" style="edgeStyle=orthogonalEdgeStyle;rounded=0;orthogonalLoop=1;jettySize=auto;html=1;entryX=0.5;entryY=0;entryDx=0;entryDy=0;" edge="1" parent="1" target="-s1ChVZKqWMHeGCS3bXz-15">
          <mxGeometry relative="1" as="geometry">
            <mxPoint x="530" y="249.9999999999999" as="targetPoint" />
            <mxPoint x="530" y="209.9999999999999" as="sourcePoint" />
          </mxGeometry>
        </mxCell>
        <mxCell id="-s1ChVZKqWMHeGCS3bXz-6" value="创建预警监控方案" style="rounded=0;whiteSpace=wrap;html=1;" vertex="1" parent="1">
          <mxGeometry x="480" y="180" width="100" height="30" as="geometry" />
        </mxCell>
        <mxCell id="-s1ChVZKqWMHeGCS3bXz-8" style="edgeStyle=orthogonalEdgeStyle;rounded=0;orthogonalLoop=1;jettySize=auto;html=1;exitX=0.5;exitY=0;exitDx=0;exitDy=0;entryX=0.452;entryY=0.008;entryDx=0;entryDy=0;entryPerimeter=0;" edge="1" parent="1" source="-s1ChVZKqWMHeGCS3bXz-7" target="-s1ChVZKqWMHeGCS3bXz-6">
          <mxGeometry relative="1" as="geometry">
            <Array as="points">
              <mxPoint x="670" y="180" />
              <mxPoint x="670" y="140" />
              <mxPoint x="525" y="140" />
            </Array>
          </mxGeometry>
        </mxCell>
        <mxCell id="-s1ChVZKqWMHeGCS3bXz-7" value="调度中心" style="rounded=0;whiteSpace=wrap;html=1;" vertex="1" parent="1">
          <mxGeometry x="630" y="180" width="100" height="30" as="geometry" />
        </mxCell>
        <mxCell id="-s1ChVZKqWMHeGCS3bXz-10" value="周期性调度执行" style="text;html=1;strokeColor=none;fillColor=none;align=center;verticalAlign=middle;whiteSpace=wrap;rounded=0;" vertex="1" parent="1">
          <mxGeometry x="550" y="110" width="110" height="30" as="geometry" />
        </mxCell>
        <mxCell id="-s1ChVZKqWMHeGCS3bXz-12" value="同步" style="text;html=1;strokeColor=none;fillColor=none;align=center;verticalAlign=middle;whiteSpace=wrap;rounded=0;" vertex="1" parent="1">
          <mxGeometry x="570" y="160" width="60" height="30" as="geometry" />
        </mxCell>
        <mxCell id="-s1ChVZKqWMHeGCS3bXz-16" style="edgeStyle=orthogonalEdgeStyle;rounded=0;orthogonalLoop=1;jettySize=auto;html=1;entryX=0.5;entryY=0;entryDx=0;entryDy=0;" edge="1" parent="1" source="-s1ChVZKqWMHeGCS3bXz-15" target="-s1ChVZKqWMHeGCS3bXz-17">
          <mxGeometry relative="1" as="geometry">
            <mxPoint x="530" y="339.9999999999999" as="targetPoint" />
          </mxGeometry>
        </mxCell>
        <mxCell id="-s1ChVZKqWMHeGCS3bXz-37" style="edgeStyle=orthogonalEdgeStyle;rounded=0;orthogonalLoop=1;jettySize=auto;html=1;" edge="1" parent="1" source="-s1ChVZKqWMHeGCS3bXz-15">
          <mxGeometry relative="1" as="geometry">
            <mxPoint x="920" y="275" as="targetPoint" />
          </mxGeometry>
        </mxCell>
        <mxCell id="-s1ChVZKqWMHeGCS3bXz-15" value="是否启用" style="rhombus;whiteSpace=wrap;html=1;" vertex="1" parent="1">
          <mxGeometry x="490" y="240" width="80" height="70" as="geometry" />
        </mxCell>
        <mxCell id="-s1ChVZKqWMHeGCS3bXz-23" style="edgeStyle=orthogonalEdgeStyle;rounded=0;orthogonalLoop=1;jettySize=auto;html=1;entryX=0;entryY=0.5;entryDx=0;entryDy=0;" edge="1" parent="1" source="-s1ChVZKqWMHeGCS3bXz-17" target="-s1ChVZKqWMHeGCS3bXz-24">
          <mxGeometry relative="1" as="geometry">
            <mxPoint x="630" y="354.9999999999999" as="targetPoint" />
          </mxGeometry>
        </mxCell>
        <mxCell id="-s1ChVZKqWMHeGCS3bXz-17" value="预警微服务" style="rounded=0;whiteSpace=wrap;html=1;" vertex="1" parent="1">
          <mxGeometry x="480" y="340" width="100" height="30" as="geometry" />
        </mxCell>
        <mxCell id="-s1ChVZKqWMHeGCS3bXz-19" style="edgeStyle=orthogonalEdgeStyle;rounded=0;orthogonalLoop=1;jettySize=auto;html=1;entryX=0;entryY=0.5;entryDx=0;entryDy=0;" edge="1" parent="1" source="-s1ChVZKqWMHeGCS3bXz-18" target="-s1ChVZKqWMHeGCS3bXz-17">
          <mxGeometry relative="1" as="geometry" />
        </mxCell>
        <mxCell id="-s1ChVZKqWMHeGCS3bXz-21" value="手动执行" style="edgeLabel;html=1;align=center;verticalAlign=middle;resizable=0;points=[];" vertex="1" connectable="0" parent="-s1ChVZKqWMHeGCS3bXz-19">
          <mxGeometry x="-0.1155" y="1" relative="1" as="geometry">
            <mxPoint as="offset" />
          </mxGeometry>
        </mxCell>
        <mxCell id="-s1ChVZKqWMHeGCS3bXz-18" value="用户" style="shape=umlActor;verticalLabelPosition=bottom;verticalAlign=top;html=1;outlineConnect=0;" vertex="1" parent="1">
          <mxGeometry x="240" y="325" width="30" height="60" as="geometry" />
        </mxCell>
        <mxCell id="-s1ChVZKqWMHeGCS3bXz-25" style="edgeStyle=orthogonalEdgeStyle;rounded=0;orthogonalLoop=1;jettySize=auto;html=1;entryX=0;entryY=0.5;entryDx=0;entryDy=0;" edge="1" parent="1" source="-s1ChVZKqWMHeGCS3bXz-24" target="-s1ChVZKqWMHeGCS3bXz-26">
          <mxGeometry relative="1" as="geometry">
            <mxPoint x="770" y="354.9999999999999" as="targetPoint" />
          </mxGeometry>
        </mxCell>
        <mxCell id="-s1ChVZKqWMHeGCS3bXz-24" value="获取监控对象" style="rounded=0;whiteSpace=wrap;html=1;" vertex="1" parent="1">
          <mxGeometry x="630" y="340" width="100" height="30" as="geometry" />
        </mxCell>
        <mxCell id="-s1ChVZKqWMHeGCS3bXz-29" style="edgeStyle=orthogonalEdgeStyle;rounded=0;orthogonalLoop=1;jettySize=auto;html=1;entryX=0.5;entryY=0;entryDx=0;entryDy=0;" edge="1" parent="1" source="-s1ChVZKqWMHeGCS3bXz-26" target="-s1ChVZKqWMHeGCS3bXz-28">
          <mxGeometry relative="1" as="geometry" />
        </mxCell>
        <mxCell id="-s1ChVZKqWMHeGCS3bXz-26" value="数据源插件" style="rounded=0;whiteSpace=wrap;html=1;" vertex="1" parent="1">
          <mxGeometry x="770" y="340" width="100" height="30" as="geometry" />
        </mxCell>
        <mxCell id="-s1ChVZKqWMHeGCS3bXz-30" style="edgeStyle=orthogonalEdgeStyle;rounded=0;orthogonalLoop=1;jettySize=auto;html=1;entryX=1;entryY=0.5;entryDx=0;entryDy=0;" edge="1" parent="1" source="-s1ChVZKqWMHeGCS3bXz-28" target="-s1ChVZKqWMHeGCS3bXz-32">
          <mxGeometry relative="1" as="geometry">
            <mxPoint x="730" y="420" as="targetPoint" />
          </mxGeometry>
        </mxCell>
        <mxCell id="-s1ChVZKqWMHeGCS3bXz-28" value="执行取数逻辑" style="rounded=0;whiteSpace=wrap;html=1;" vertex="1" parent="1">
          <mxGeometry x="770" y="420" width="100" height="30" as="geometry" />
        </mxCell>
        <mxCell id="-s1ChVZKqWMHeGCS3bXz-33" style="edgeStyle=orthogonalEdgeStyle;rounded=0;orthogonalLoop=1;jettySize=auto;html=1;" edge="1" parent="1" source="-s1ChVZKqWMHeGCS3bXz-32">
          <mxGeometry relative="1" as="geometry">
            <mxPoint x="580" y="435" as="targetPoint" />
          </mxGeometry>
        </mxCell>
        <mxCell id="-s1ChVZKqWMHeGCS3bXz-63" style="edgeStyle=orthogonalEdgeStyle;rounded=0;orthogonalLoop=1;jettySize=auto;html=1;" edge="1" parent="1" source="-s1ChVZKqWMHeGCS3bXz-32">
          <mxGeometry relative="1" as="geometry">
            <mxPoint x="920" y="500" as="targetPoint" />
            <Array as="points">
              <mxPoint x="680" y="500" />
              <mxPoint x="900" y="500" />
            </Array>
          </mxGeometry>
        </mxCell>
        <mxCell id="-s1ChVZKqWMHeGCS3bXz-32" value="是否存&lt;br&gt;在数据" style="rhombus;whiteSpace=wrap;html=1;" vertex="1" parent="1">
          <mxGeometry x="640" y="400" width="80" height="70" as="geometry" />
        </mxCell>
        <mxCell id="-s1ChVZKqWMHeGCS3bXz-42" style="edgeStyle=orthogonalEdgeStyle;rounded=0;orthogonalLoop=1;jettySize=auto;html=1;entryX=1;entryY=0.5;entryDx=0;entryDy=0;" edge="1" parent="1" source="-s1ChVZKqWMHeGCS3bXz-34" target="-s1ChVZKqWMHeGCS3bXz-41">
          <mxGeometry relative="1" as="geometry" />
        </mxCell>
        <mxCell id="-s1ChVZKqWMHeGCS3bXz-34" value="消息解析插件" style="rounded=0;whiteSpace=wrap;html=1;" vertex="1" parent="1">
          <mxGeometry x="480" y="420" width="100" height="30" as="geometry" />
        </mxCell>
        <mxCell id="-s1ChVZKqWMHeGCS3bXz-36" value="是" style="text;html=1;strokeColor=none;fillColor=none;align=center;verticalAlign=middle;whiteSpace=wrap;rounded=0;" vertex="1" parent="1">
          <mxGeometry x="520" y="300" width="60" height="30" as="geometry" />
        </mxCell>
        <mxCell id="-s1ChVZKqWMHeGCS3bXz-38" value="否" style="text;html=1;strokeColor=none;fillColor=none;align=center;verticalAlign=middle;whiteSpace=wrap;rounded=0;" vertex="1" parent="1">
          <mxGeometry x="590" y="250" width="60" height="30" as="geometry" />
        </mxCell>
        <mxCell id="-s1ChVZKqWMHeGCS3bXz-39" value="是" style="text;html=1;strokeColor=none;fillColor=none;align=center;verticalAlign=middle;whiteSpace=wrap;rounded=0;" vertex="1" parent="1">
          <mxGeometry x="580" y="410" width="60" height="30" as="geometry" />
        </mxCell>
        <mxCell id="-s1ChVZKqWMHeGCS3bXz-40" value="&lt;span style=&quot;color: rgb(0, 0, 0); font-family: Helvetica; font-size: 12px; font-style: normal; font-variant-ligatures: normal; font-variant-caps: normal; font-weight: 400; letter-spacing: normal; orphans: 2; text-align: center; text-indent: 0px; text-transform: none; widows: 2; word-spacing: 0px; -webkit-text-stroke-width: 0px; background-color: rgb(248, 249, 250); text-decoration-thickness: initial; text-decoration-style: initial; text-decoration-color: initial; float: none; display: inline !important;&quot;&gt;否&lt;/span&gt;" style="text;whiteSpace=wrap;html=1;" vertex="1" parent="1">
          <mxGeometry x="690" y="460" width="30" height="20" as="geometry" />
        </mxCell>
        <mxCell id="-s1ChVZKqWMHeGCS3bXz-43" style="edgeStyle=orthogonalEdgeStyle;rounded=0;orthogonalLoop=1;jettySize=auto;html=1;entryX=0.5;entryY=0;entryDx=0;entryDy=0;" edge="1" parent="1" source="-s1ChVZKqWMHeGCS3bXz-41" target="-s1ChVZKqWMHeGCS3bXz-44">
          <mxGeometry relative="1" as="geometry">
            <mxPoint x="380" y="480" as="targetPoint" />
          </mxGeometry>
        </mxCell>
        <mxCell id="-s1ChVZKqWMHeGCS3bXz-41" value="消息处理插件" style="rounded=0;whiteSpace=wrap;html=1;" vertex="1" parent="1">
          <mxGeometry x="330" y="420" width="100" height="30" as="geometry" />
        </mxCell>
        <mxCell id="-s1ChVZKqWMHeGCS3bXz-60" style="edgeStyle=orthogonalEdgeStyle;rounded=0;orthogonalLoop=1;jettySize=auto;html=1;entryX=0;entryY=0.5;entryDx=0;entryDy=0;" edge="1" parent="1" source="-s1ChVZKqWMHeGCS3bXz-44" target="-s1ChVZKqWMHeGCS3bXz-49">
          <mxGeometry relative="1" as="geometry" />
        </mxCell>
        <mxCell id="-s1ChVZKqWMHeGCS3bXz-66" style="edgeStyle=orthogonalEdgeStyle;rounded=0;orthogonalLoop=1;jettySize=auto;html=1;" edge="1" parent="1" source="-s1ChVZKqWMHeGCS3bXz-44" target="-s1ChVZKqWMHeGCS3bXz-81">
          <mxGeometry relative="1" as="geometry">
            <mxPoint x="380" y="680" as="targetPoint" />
          </mxGeometry>
        </mxCell>
        <mxCell id="-s1ChVZKqWMHeGCS3bXz-44" value="是否需要&lt;br&gt;发送消息" style="rhombus;whiteSpace=wrap;html=1;" vertex="1" parent="1">
          <mxGeometry x="340" y="525" width="80" height="70" as="geometry" />
        </mxCell>
        <mxCell id="-s1ChVZKqWMHeGCS3bXz-50" style="edgeStyle=orthogonalEdgeStyle;rounded=0;orthogonalLoop=1;jettySize=auto;html=1;entryX=0;entryY=0.5;entryDx=0;entryDy=0;" edge="1" parent="1" source="-s1ChVZKqWMHeGCS3bXz-49" target="-s1ChVZKqWMHeGCS3bXz-51">
          <mxGeometry relative="1" as="geometry">
            <mxPoint x="670" y="560" as="targetPoint" />
          </mxGeometry>
        </mxCell>
        <mxCell id="-s1ChVZKqWMHeGCS3bXz-49" value="获取消息接收人" style="rounded=0;whiteSpace=wrap;html=1;" vertex="1" parent="1">
          <mxGeometry x="480" y="545" width="100" height="30" as="geometry" />
        </mxCell>
        <mxCell id="-s1ChVZKqWMHeGCS3bXz-52" style="edgeStyle=orthogonalEdgeStyle;rounded=0;orthogonalLoop=1;jettySize=auto;html=1;" edge="1" parent="1" source="-s1ChVZKqWMHeGCS3bXz-51">
          <mxGeometry relative="1" as="geometry">
            <mxPoint x="920" y="560" as="targetPoint" />
            <Array as="points">
              <mxPoint x="920" y="560" />
              <mxPoint x="920" y="560" />
            </Array>
          </mxGeometry>
        </mxCell>
        <mxCell id="-s1ChVZKqWMHeGCS3bXz-75" style="edgeStyle=orthogonalEdgeStyle;rounded=0;orthogonalLoop=1;jettySize=auto;html=1;" edge="1" parent="1" source="-s1ChVZKqWMHeGCS3bXz-51" target="-s1ChVZKqWMHeGCS3bXz-74">
          <mxGeometry relative="1" as="geometry">
            <mxPoint x="680" y="640" as="targetPoint" />
          </mxGeometry>
        </mxCell>
        <mxCell id="-s1ChVZKqWMHeGCS3bXz-51" value="接收人&lt;br&gt;是否为空" style="rhombus;whiteSpace=wrap;html=1;" vertex="1" parent="1">
          <mxGeometry x="640" y="525" width="80" height="70" as="geometry" />
        </mxCell>
        <mxCell id="-s1ChVZKqWMHeGCS3bXz-54" value="&lt;div style=&quot;text-align: center;&quot;&gt;空&lt;/div&gt;" style="text;whiteSpace=wrap;html=1;" vertex="1" parent="1">
          <mxGeometry x="750" y="535" width="30" height="20" as="geometry" />
        </mxCell>
        <mxCell id="-s1ChVZKqWMHeGCS3bXz-57" value="&lt;div style=&quot;text-align: center;&quot;&gt;非空&lt;/div&gt;" style="text;whiteSpace=wrap;html=1;" vertex="1" parent="1">
          <mxGeometry x="690" y="595" width="30" height="20" as="geometry" />
        </mxCell>
        <mxCell id="-s1ChVZKqWMHeGCS3bXz-64" value="&lt;span style=&quot;color: rgb(0, 0, 0); font-family: Helvetica; font-size: 12px; font-style: normal; font-variant-ligatures: normal; font-variant-caps: normal; font-weight: 400; letter-spacing: normal; orphans: 2; text-align: center; text-indent: 0px; text-transform: none; widows: 2; word-spacing: 0px; -webkit-text-stroke-width: 0px; background-color: rgb(248, 249, 250); text-decoration-thickness: initial; text-decoration-style: initial; text-decoration-color: initial; float: none; display: inline !important;&quot;&gt;是&lt;/span&gt;" style="text;whiteSpace=wrap;html=1;" vertex="1" parent="1">
          <mxGeometry x="430" y="535" width="30" height="20" as="geometry" />
        </mxCell>
        <mxCell id="-s1ChVZKqWMHeGCS3bXz-65" value="&lt;span style=&quot;color: rgb(0, 0, 0); font-family: Helvetica; font-size: 12px; font-style: normal; font-variant-ligatures: normal; font-variant-caps: normal; font-weight: 400; letter-spacing: normal; orphans: 2; text-align: center; text-indent: 0px; text-transform: none; widows: 2; word-spacing: 0px; -webkit-text-stroke-width: 0px; background-color: rgb(248, 249, 250); text-decoration-thickness: initial; text-decoration-style: initial; text-decoration-color: initial; float: none; display: inline !important;&quot;&gt;否&lt;/span&gt;" style="text;whiteSpace=wrap;html=1;" vertex="1" parent="1">
          <mxGeometry x="380" y="600" width="30" height="20" as="geometry" />
        </mxCell>
        <mxCell id="-s1ChVZKqWMHeGCS3bXz-70" style="edgeStyle=orthogonalEdgeStyle;rounded=0;orthogonalLoop=1;jettySize=auto;html=1;" edge="1" parent="1" source="-s1ChVZKqWMHeGCS3bXz-69" target="-s1ChVZKqWMHeGCS3bXz-71">
          <mxGeometry relative="1" as="geometry">
            <mxPoint x="790" y="725" as="targetPoint" />
          </mxGeometry>
        </mxCell>
        <mxCell id="-s1ChVZKqWMHeGCS3bXz-73" style="edgeStyle=orthogonalEdgeStyle;rounded=0;orthogonalLoop=1;jettySize=auto;html=1;entryX=0.5;entryY=0;entryDx=0;entryDy=0;" edge="1" parent="1" source="-s1ChVZKqWMHeGCS3bXz-69" target="-s1ChVZKqWMHeGCS3bXz-72">
          <mxGeometry relative="1" as="geometry" />
        </mxCell>
        <mxCell id="-s1ChVZKqWMHeGCS3bXz-69" value="是否合并&lt;br&gt;发送消息" style="rhombus;whiteSpace=wrap;html=1;" vertex="1" parent="1">
          <mxGeometry x="640" y="690" width="80" height="70" as="geometry" />
        </mxCell>
        <mxCell id="-s1ChVZKqWMHeGCS3bXz-83" style="edgeStyle=orthogonalEdgeStyle;rounded=0;orthogonalLoop=1;jettySize=auto;html=1;entryX=1;entryY=0.75;entryDx=0;entryDy=0;" edge="1" parent="1" source="-s1ChVZKqWMHeGCS3bXz-71" target="-s1ChVZKqWMHeGCS3bXz-72">
          <mxGeometry relative="1" as="geometry">
            <Array as="points">
              <mxPoint x="820" y="813" />
            </Array>
          </mxGeometry>
        </mxCell>
        <mxCell id="-s1ChVZKqWMHeGCS3bXz-71" value="合并消息" style="rounded=0;whiteSpace=wrap;html=1;" vertex="1" parent="1">
          <mxGeometry x="770" y="710" width="100" height="30" as="geometry" />
        </mxCell>
        <mxCell id="-s1ChVZKqWMHeGCS3bXz-84" style="edgeStyle=orthogonalEdgeStyle;rounded=0;orthogonalLoop=1;jettySize=auto;html=1;" edge="1" parent="1" source="-s1ChVZKqWMHeGCS3bXz-72" target="-s1ChVZKqWMHeGCS3bXz-85">
          <mxGeometry relative="1" as="geometry">
            <mxPoint x="580" y="805" as="targetPoint" />
          </mxGeometry>
        </mxCell>
        <mxCell id="-s1ChVZKqWMHeGCS3bXz-72" value="调用消息微服务" style="rounded=0;whiteSpace=wrap;html=1;" vertex="1" parent="1">
          <mxGeometry x="630" y="790" width="100" height="30" as="geometry" />
        </mxCell>
        <mxCell id="-s1ChVZKqWMHeGCS3bXz-76" style="edgeStyle=orthogonalEdgeStyle;rounded=0;orthogonalLoop=1;jettySize=auto;html=1;entryX=0.5;entryY=0;entryDx=0;entryDy=0;" edge="1" parent="1" source="-s1ChVZKqWMHeGCS3bXz-74" target="-s1ChVZKqWMHeGCS3bXz-69">
          <mxGeometry relative="1" as="geometry" />
        </mxCell>
        <mxCell id="-s1ChVZKqWMHeGCS3bXz-74" value="获取消息发送渠道" style="rounded=0;whiteSpace=wrap;html=1;" vertex="1" parent="1">
          <mxGeometry x="630" y="630" width="100" height="30" as="geometry" />
        </mxCell>
        <mxCell id="-s1ChVZKqWMHeGCS3bXz-77" value="结束" style="rounded=1;whiteSpace=wrap;html=1;" vertex="1" parent="1">
          <mxGeometry x="880" y="615" width="80" height="30" as="geometry" />
        </mxCell>
        <mxCell id="-s1ChVZKqWMHeGCS3bXz-80" value="" style="endArrow=classic;html=1;rounded=0;" edge="1" parent="1" target="-s1ChVZKqWMHeGCS3bXz-77">
          <mxGeometry width="50" height="50" relative="1" as="geometry">
            <mxPoint x="920" y="270" as="sourcePoint" />
            <mxPoint x="919.66" y="480" as="targetPoint" />
          </mxGeometry>
        </mxCell>
        <mxCell id="-s1ChVZKqWMHeGCS3bXz-81" value="结束" style="rounded=1;whiteSpace=wrap;html=1;" vertex="1" parent="1">
          <mxGeometry x="340" y="650" width="80" height="30" as="geometry" />
        </mxCell>
        <mxCell id="-s1ChVZKqWMHeGCS3bXz-82" value="&lt;div style=&quot;text-align: center;&quot;&gt;是&lt;/div&gt;" style="text;whiteSpace=wrap;html=1;" vertex="1" parent="1">
          <mxGeometry x="730" y="700" width="30" height="20" as="geometry" />
        </mxCell>
        <mxCell id="-s1ChVZKqWMHeGCS3bXz-85" value="发送消息到指定渠道" style="rounded=0;whiteSpace=wrap;html=1;" vertex="1" parent="1">
          <mxGeometry x="470" y="790" width="130" height="30" as="geometry" />
        </mxCell>
      </root>
    </mxGraphModel>
  </diagram>
</mxfile>
